<svg xmlns="http://www.w3.org/2000/svg" width="404" height="147" viewBox="0 0 404 147" fill="none"><mask id="path-1-outside-1_476_83" maskUnits="userSpaceOnUse" x="3" y="34" width="394" height="115" fill="black"><rect fill="white" x="3" y="34" width="394" height="115"></rect><path d="M38.6497 114.095C45.0548 114.095 50.0816 112.879 53.73 110.447C57.4596 107.933 59.3244 104.528 59.3244 100.231C59.3244 97.1499 58.6757 94.7175 57.3785 92.9338C56.0813 91.1501 53.9327 89.6502 50.9329 88.4341C48.0141 87.1368 43.5954 85.718 37.6768 84.1775C29.9744 82.1506 24.0558 80.0426 19.9209 77.8535C15.7859 75.5833 12.8672 72.9889 11.1645 70.0701C9.543 67.1513 8.73222 63.4218 8.73222 58.8814C8.73222 51.8277 11.2862 46.3145 16.394 42.3417C21.583 38.2879 28.7177 36.2609 37.7984 36.2609L37.1903 44.774C31.2717 44.774 26.6097 45.9496 23.2045 48.3009C19.8803 50.6521 18.2183 53.8547 18.2183 57.9085C18.2183 60.6651 18.7453 62.9758 19.7993 64.8406C20.9343 66.7054 22.8802 68.3675 25.6368 69.8269C28.4745 71.2052 32.4878 72.5835 37.6768 73.9618C45.9466 76.1509 52.2706 78.3805 56.6488 80.6507C61.1081 82.8397 64.2295 85.4747 66.0132 88.5557C67.878 91.5555 68.8104 95.3662 68.8104 99.9876C68.8104 107.041 66.0538 112.595 60.5405 116.649C55.1083 120.622 47.5682 122.608 37.92 122.608L38.6497 114.095ZM37.92 122.608C28.3529 122.608 20.6506 120.216 14.813 115.433C8.97546 110.649 5.73237 104.041 5.08375 95.6094L14.4482 94.0284C14.8535 100.028 17.2048 104.893 21.5019 108.622C25.88 112.271 31.596 114.095 38.6497 114.095L37.92 122.608ZM58.3514 64.8406C57.946 58.5166 55.9597 53.6114 52.3923 50.1251C48.8249 46.5577 43.7575 44.774 37.1903 44.774L37.7984 36.2609C43.7981 36.2609 49.0276 37.396 53.4868 39.6662C58.0271 41.8552 61.5134 45.0173 63.9458 49.1522C66.4591 53.206 67.7158 57.9491 67.7158 63.3812L58.3514 64.8406ZM129.03 99.6227C129.03 107.001 126.882 112.676 122.584 116.649C118.287 120.622 112.247 122.608 104.464 122.608C96.5993 122.608 90.5185 120.622 86.2214 116.649C81.9243 112.676 79.8163 107.001 79.8974 99.6227V59.976H88.7753V98.5282C88.7753 104.041 90.1536 108.176 92.9102 110.933C95.6669 113.609 99.518 114.946 104.464 114.946C109.409 114.946 113.261 113.609 116.017 110.933C118.774 108.176 120.152 104.041 120.152 98.5282V59.976H129.03V99.6227ZM193.63 59.976L169.915 122L161.523 123.095L137.565 59.976H146.808L161.767 100.352C164.685 107.974 166.55 114.095 167.361 118.716H163.956C164.442 115.879 165.131 113.082 166.023 110.325C166.915 107.487 168.131 103.96 169.672 99.7443L184.387 59.976H193.63ZM135.862 146.445V138.783H160.064V146.445H135.862ZM161.888 120.297L169.915 122L160.064 146.445L152.402 143.891L161.888 120.297ZM240.014 81.2587C240.014 76.313 238.676 72.5429 236.001 69.9485C233.406 67.354 229.596 66.0568 224.569 66.0568C219.38 66.0568 215.285 67.4756 212.286 70.3133C209.286 73.151 207.786 77.0427 207.786 81.9884L199.151 80.7723C199.151 73.7996 201.421 68.3269 205.962 64.3542C210.502 60.3814 216.785 58.395 224.812 58.395C232.595 58.395 238.514 60.3408 242.568 64.2325C246.622 68.1242 248.649 73.8402 248.649 81.3804V122H240.014V81.2587ZM217.637 122.608C211.475 122.608 206.57 121.189 202.921 118.352C199.354 115.433 197.57 111.257 197.57 105.825L206.691 105.217C206.691 108.379 207.745 110.811 209.853 112.514C212.042 114.136 215.083 114.946 218.974 114.946L217.637 122.608ZM218.974 114.946C222.136 114.946 225.339 114.298 228.582 113C231.906 111.622 234.622 109.717 236.73 107.284C238.919 104.852 240.014 102.055 240.014 98.893L244.27 97.5552C244.189 102.258 242.811 106.555 240.136 110.447C237.46 114.257 234.055 117.257 229.92 119.446C225.785 121.554 221.69 122.608 217.637 122.608L218.974 114.946ZM197.57 105.825C197.57 100.474 199.556 96.1364 203.529 92.8122C207.583 89.4881 213.056 87.2179 219.947 86.0018L245.608 81.3804V88.6773L222.501 92.6906C211.961 94.5554 206.691 98.7309 206.691 105.217L197.57 105.825ZM301.874 122.122V82.3533C301.874 76.84 300.374 72.7456 297.374 70.0701C294.374 67.3135 290.361 65.9352 285.334 65.9352C280.307 65.9352 276.294 67.3135 273.294 70.0701C270.294 72.7456 268.794 76.84 268.794 82.3533V122.122H260.159V81.2587C259.997 73.9618 262.146 68.3269 266.605 64.3542C271.145 60.3003 277.388 58.2734 285.334 58.2734C293.198 58.2734 299.36 60.3003 303.819 64.3542C308.36 68.3269 310.589 73.9618 310.508 81.2587V122.122H301.874ZM362.675 81.2587C362.675 76.313 361.337 72.5429 358.661 69.9485C356.067 67.354 352.256 66.0568 347.23 66.0568C342.041 66.0568 337.946 67.4756 334.946 70.3133C331.947 73.151 330.447 77.0427 330.447 81.9884L321.812 80.7723C321.812 73.7996 324.082 68.3269 328.622 64.3542C333.163 60.3814 339.446 58.395 347.473 58.395C355.256 58.395 361.175 60.3408 365.229 64.2325C369.283 68.1242 371.309 73.8402 371.309 81.3804V122H362.675V81.2587ZM340.297 122.608C334.136 122.608 329.23 121.189 325.582 118.352C322.015 115.433 320.231 111.257 320.231 105.825L329.352 105.217C329.352 108.379 330.406 110.811 332.514 112.514C334.703 114.136 337.744 114.946 341.635 114.946L340.297 122.608ZM341.635 114.946C344.797 114.946 348 114.298 351.243 113C354.567 111.622 357.283 109.717 359.391 107.284C361.58 104.852 362.675 102.055 362.675 98.893L366.931 97.5552C366.85 102.258 365.472 106.555 362.796 110.447C360.121 114.257 356.716 117.257 352.581 119.446C348.446 121.554 344.351 122.608 340.297 122.608L341.635 114.946ZM320.231 105.825C320.231 100.474 322.217 96.1364 326.19 92.8122C330.244 89.4881 335.717 87.2179 342.608 86.0018L368.269 81.3804V88.6773L345.162 92.6906C334.622 94.5554 329.352 98.7309 329.352 105.217L320.231 105.825ZM395.058 112.149V122H385.329V112.149H395.058Z"></path></mask><path d="M38.6497 114.095C45.0548 114.095 50.0816 112.879 53.73 110.447C57.4596 107.933 59.3244 104.528 59.3244 100.231C59.3244 97.1499 58.6757 94.7175 57.3785 92.9338C56.0813 91.1501 53.9327 89.6502 50.9329 88.4341C48.0141 87.1368 43.5954 85.718 37.6768 84.1775C29.9744 82.1506 24.0558 80.0426 19.9209 77.8535C15.7859 75.5833 12.8672 72.9889 11.1645 70.0701C9.543 67.1513 8.73222 63.4218 8.73222 58.8814C8.73222 51.8277 11.2862 46.3145 16.394 42.3417C21.583 38.2879 28.7177 36.2609 37.7984 36.2609L37.1903 44.774C31.2717 44.774 26.6097 45.9496 23.2045 48.3009C19.8803 50.6521 18.2183 53.8547 18.2183 57.9085C18.2183 60.6651 18.7453 62.9758 19.7993 64.8406C20.9343 66.7054 22.8802 68.3675 25.6368 69.8269C28.4745 71.2052 32.4878 72.5835 37.6768 73.9618C45.9466 76.1509 52.2706 78.3805 56.6488 80.6507C61.1081 82.8397 64.2295 85.4747 66.0132 88.5557C67.878 91.5555 68.8104 95.3662 68.8104 99.9876C68.8104 107.041 66.0538 112.595 60.5405 116.649C55.1083 120.622 47.5682 122.608 37.92 122.608L38.6497 114.095ZM37.92 122.608C28.3529 122.608 20.6506 120.216 14.813 115.433C8.97546 110.649 5.73237 104.041 5.08375 95.6094L14.4482 94.0284C14.8535 100.028 17.2048 104.893 21.5019 108.622C25.88 112.271 31.596 114.095 38.6497 114.095L37.92 122.608ZM58.3514 64.8406C57.946 58.5166 55.9597 53.6114 52.3923 50.1251C48.8249 46.5577 43.7575 44.774 37.1903 44.774L37.7984 36.2609C43.7981 36.2609 49.0276 37.396 53.4868 39.6662C58.0271 41.8552 61.5134 45.0173 63.9458 49.1522C66.4591 53.206 67.7158 57.9491 67.7158 63.3812L58.3514 64.8406ZM129.03 99.6227C129.03 107.001 126.882 112.676 122.584 116.649C118.287 120.622 112.247 122.608 104.464 122.608C96.5993 122.608 90.5185 120.622 86.2214 116.649C81.9243 112.676 79.8163 107.001 79.8974 99.6227V59.976H88.7753V98.5282C88.7753 104.041 90.1536 108.176 92.9102 110.933C95.6669 113.609 99.518 114.946 104.464 114.946C109.409 114.946 113.261 113.609 116.017 110.933C118.774 108.176 120.152 104.041 120.152 98.5282V59.976H129.03V99.6227ZM193.63 59.976L169.915 122L161.523 123.095L137.565 59.976H146.808L161.767 100.352C164.685 107.974 166.55 114.095 167.361 118.716H163.956C164.442 115.879 165.131 113.082 166.023 110.325C166.915 107.487 168.131 103.96 169.672 99.7443L184.387 59.976H193.63ZM135.862 146.445V138.783H160.064V146.445H135.862ZM161.888 120.297L169.915 122L160.064 146.445L152.402 143.891L161.888 120.297ZM240.014 81.2587C240.014 76.313 238.676 72.5429 236.001 69.9485C233.406 67.354 229.596 66.0568 224.569 66.0568C219.38 66.0568 215.285 67.4756 212.286 70.3133C209.286 73.151 207.786 77.0427 207.786 81.9884L199.151 80.7723C199.151 73.7996 201.421 68.3269 205.962 64.3542C210.502 60.3814 216.785 58.395 224.812 58.395C232.595 58.395 238.514 60.3408 242.568 64.2325C246.622 68.1242 248.649 73.8402 248.649 81.3804V122H240.014V81.2587ZM217.637 122.608C211.475 122.608 206.57 121.189 202.921 118.352C199.354 115.433 197.57 111.257 197.57 105.825L206.691 105.217C206.691 108.379 207.745 110.811 209.853 112.514C212.042 114.136 215.083 114.946 218.974 114.946L217.637 122.608ZM218.974 114.946C222.136 114.946 225.339 114.298 228.582 113C231.906 111.622 234.622 109.717 236.73 107.284C238.919 104.852 240.014 102.055 240.014 98.893L244.27 97.5552C244.189 102.258 242.811 106.555 240.136 110.447C237.46 114.257 234.055 117.257 229.92 119.446C225.785 121.554 221.69 122.608 217.637 122.608L218.974 114.946ZM197.57 105.825C197.57 100.474 199.556 96.1364 203.529 92.8122C207.583 89.4881 213.056 87.2179 219.947 86.0018L245.608 81.3804V88.6773L222.501 92.6906C211.961 94.5554 206.691 98.7309 206.691 105.217L197.57 105.825ZM301.874 122.122V82.3533C301.874 76.84 300.374 72.7456 297.374 70.0701C294.374 67.3135 290.361 65.9352 285.334 65.9352C280.307 65.9352 276.294 67.3135 273.294 70.0701C270.294 72.7456 268.794 76.84 268.794 82.3533V122.122H260.159V81.2587C259.997 73.9618 262.146 68.3269 266.605 64.3542C271.145 60.3003 277.388 58.2734 285.334 58.2734C293.198 58.2734 299.36 60.3003 303.819 64.3542C308.36 68.3269 310.589 73.9618 310.508 81.2587V122.122H301.874ZM362.675 81.2587C362.675 76.313 361.337 72.5429 358.661 69.9485C356.067 67.354 352.256 66.0568 347.23 66.0568C342.041 66.0568 337.946 67.4756 334.946 70.3133C331.947 73.151 330.447 77.0427 330.447 81.9884L321.812 80.7723C321.812 73.7996 324.082 68.3269 328.622 64.3542C333.163 60.3814 339.446 58.395 347.473 58.395C355.256 58.395 361.175 60.3408 365.229 64.2325C369.283 68.1242 371.309 73.8402 371.309 81.3804V122H362.675V81.2587ZM340.297 122.608C334.136 122.608 329.23 121.189 325.582 118.352C322.015 115.433 320.231 111.257 320.231 105.825L329.352 105.217C329.352 108.379 330.406 110.811 332.514 112.514C334.703 114.136 337.744 114.946 341.635 114.946L340.297 122.608ZM341.635 114.946C344.797 114.946 348 114.298 351.243 113C354.567 111.622 357.283 109.717 359.391 107.284C361.58 104.852 362.675 102.055 362.675 98.893L366.931 97.5552C366.85 102.258 365.472 106.555 362.796 110.447C360.121 114.257 356.716 117.257 352.581 119.446C348.446 121.554 344.351 122.608 340.297 122.608L341.635 114.946ZM320.231 105.825C320.231 100.474 322.217 96.1364 326.19 92.8122C330.244 89.4881 335.717 87.2179 342.608 86.0018L368.269 81.3804V88.6773L345.162 92.6906C334.622 94.5554 329.352 98.7309 329.352 105.217L320.231 105.825ZM395.058 112.149V122H385.329V112.149H395.058Z" fill="#181818"></path><path d="M38.6497 114.095V112.796H37.4572L37.3554 113.984L38.6497 114.095ZM53.73 110.447L54.4506 111.527L54.456 111.524L53.73 110.447ZM57.3785 92.9338L58.4291 92.1698L57.3785 92.9338ZM50.9329 88.4341L50.4053 89.6211L50.4249 89.6299L50.4448 89.6379L50.9329 88.4341ZM37.6768 84.1775L37.3462 85.4338L37.3496 85.4347L37.6768 84.1775ZM19.9209 77.8535L19.2957 78.9922L19.3043 78.997L19.3131 79.0016L19.9209 77.8535ZM11.1645 70.0701L10.029 70.701L10.0356 70.7129L10.0425 70.7246L11.1645 70.0701ZM16.394 42.3417L17.1915 43.3671L17.1938 43.3654L16.394 42.3417ZM37.7984 36.2609L39.0941 36.3535L39.1935 34.9619H37.7984V36.2609ZM37.1903 44.774V46.0731H38.3999L38.486 44.8666L37.1903 44.774ZM23.2045 48.3009L22.4664 47.2319L22.4603 47.2361L22.4543 47.2403L23.2045 48.3009ZM19.7993 64.8406L18.6684 65.4798L18.6787 65.4981L18.6896 65.516L19.7993 64.8406ZM25.6368 69.8269L25.029 70.9749L25.049 70.9855L25.0693 70.9954L25.6368 69.8269ZM37.6768 73.9618L37.3433 75.2173L37.3444 75.2176L37.6768 73.9618ZM56.6488 80.6507L56.0508 81.8039L56.0635 81.8105L56.0764 81.8168L56.6488 80.6507ZM66.0132 88.5557L64.889 89.2065L64.8992 89.2242L64.91 89.2415L66.0132 88.5557ZM60.5405 116.649L61.3074 117.697L61.3101 117.695L60.5405 116.649ZM37.92 122.608L36.6257 122.497L36.5049 123.907H37.92V122.608ZM37.92 122.608V123.907H39.1124L39.2143 122.719L37.92 122.608ZM14.813 115.433L13.9897 116.438L13.9897 116.438L14.813 115.433ZM5.08375 95.6094L4.8675 94.3285L3.69754 94.526L3.78854 95.709L5.08375 95.6094ZM14.4482 94.0284L15.7442 93.9408L15.6475 92.5085L14.2319 92.7475L14.4482 94.0284ZM21.5019 108.622L20.6504 109.603L20.6602 109.612L20.6703 109.62L21.5019 108.622ZM38.6497 114.095L39.944 114.206L40.0648 112.796H38.6497V114.095ZM58.3514 64.8406L57.0551 64.9237L57.146 66.3432L58.5515 66.1242L58.3514 64.8406ZM52.3923 50.1251L51.4737 51.0437L51.479 51.049L51.4843 51.0542L52.3923 50.1251ZM37.1903 44.774L35.8946 44.6815L35.7952 46.0731H37.1903V44.774ZM37.7984 36.2609V34.9619H36.5888L36.5026 36.1684L37.7984 36.2609ZM53.4868 39.6662L52.8975 40.8238L52.91 40.8302L52.9226 40.8363L53.4868 39.6662ZM63.9458 49.1522L62.8261 49.8108L62.8337 49.8239L62.8417 49.8367L63.9458 49.1522ZM67.7158 63.3812L67.9159 64.6648L69.0149 64.4935V63.3812H67.7158ZM38.6497 115.394C45.1992 115.394 50.5115 114.153 54.4506 111.527L53.0095 109.366C49.6516 111.604 44.9103 112.796 38.6497 112.796V115.394ZM54.456 111.524C58.5239 108.782 60.6234 104.983 60.6234 100.231H58.0253C58.0253 104.072 56.3953 107.084 53.0041 109.369L54.456 111.524ZM60.6234 100.231C60.6234 96.9814 59.9406 94.2482 58.4291 92.1698L56.3279 93.6979C57.4109 95.1869 58.0253 97.3184 58.0253 100.231H60.6234ZM58.4291 92.1698C56.9372 90.1185 54.5468 88.4975 51.4209 87.2302L50.4448 89.6379C53.3186 90.803 55.2253 92.1818 56.3279 93.6979L58.4291 92.1698ZM51.4605 87.247C48.4425 85.9057 43.9411 84.4657 38.004 82.9204L37.3496 85.4347C43.2496 86.9703 47.5857 88.368 50.4053 89.6211L51.4605 87.247ZM38.0074 82.9213C30.3442 80.9046 24.5355 78.8267 20.5287 76.7054L19.3131 79.0016C23.5761 81.2585 29.6047 83.3965 37.3462 85.4338L38.0074 82.9213ZM20.546 76.7148C16.5395 74.5151 13.8326 72.0657 12.2866 69.4155L10.0425 70.7246C11.9018 73.912 15.0323 76.6515 19.2957 78.9922L20.546 76.7148ZM12.3001 69.4392C10.8175 66.7705 10.0313 63.277 10.0313 58.8814H7.43319C7.43319 63.5665 8.26853 67.5322 10.029 70.701L12.3001 69.4392ZM10.0313 58.8814C10.0313 52.1871 12.4315 47.0694 17.1915 43.3671L15.5965 41.3163C10.1408 45.5596 7.43319 51.4684 7.43319 58.8814H10.0313ZM17.1938 43.3654C22.0815 39.5468 28.8992 37.56 37.7984 37.56V34.9619C28.5362 34.9619 21.0844 37.0289 15.5943 41.318L17.1938 43.3654ZM36.5026 36.1684L35.8946 44.6815L38.486 44.8666L39.0941 36.3535L36.5026 36.1684ZM37.1903 43.475C31.1168 43.475 26.1636 44.6791 22.4664 47.2319L23.9426 49.3699C27.0559 47.2202 31.4265 46.0731 37.1903 46.0731V43.475ZM22.4543 47.2403C18.7878 49.8338 16.9192 53.4308 16.9192 57.9085H19.5173C19.5173 54.2785 20.9729 51.4705 23.9546 49.3614L22.4543 47.2403ZM16.9192 57.9085C16.9192 60.8264 17.4769 63.3718 18.6684 65.4798L20.9301 64.2014C20.0136 62.5799 19.5173 60.5039 19.5173 57.9085H16.9192ZM18.6896 65.516C19.9877 67.6486 22.1494 69.4505 25.029 70.9749L26.2446 68.6788C23.6109 67.2845 21.881 65.7622 20.9089 64.1652L18.6896 65.516ZM25.0693 70.9954C28.0162 72.4267 32.1213 73.8302 37.3433 75.2173L38.0103 72.7063C32.8543 71.3367 28.9329 69.9836 26.2044 68.6584L25.0693 70.9954ZM37.3444 75.2176C45.5788 77.3973 51.7968 79.5981 56.0508 81.8039L57.2468 79.4974C52.7445 77.1629 46.3145 74.9045 38.0092 72.706L37.3444 75.2176ZM56.0764 81.8168C60.3928 83.9357 63.2758 86.4202 64.889 89.2065L67.1374 87.9048C65.1832 84.5293 61.8233 81.7438 57.2213 79.4846L56.0764 81.8168ZM64.91 89.2415C66.613 91.9811 67.5113 95.5353 67.5113 99.9876H70.1094C70.1094 95.197 69.143 91.13 67.1165 87.8699L64.91 89.2415ZM67.5113 99.9876C67.5113 106.643 64.9394 111.802 59.771 115.602L61.3101 117.695C67.1681 113.388 70.1094 107.439 70.1094 99.9876H67.5113ZM59.7737 115.6C54.6419 119.353 47.4078 121.309 37.92 121.309V123.907C47.7286 123.907 55.5748 121.89 61.3074 117.697L59.7737 115.6ZM39.2143 122.719L39.944 114.206L37.3554 113.984L36.6257 122.497L39.2143 122.719ZM37.92 121.309C28.571 121.309 21.1853 118.975 15.6364 114.428L13.9897 116.438C20.1158 121.458 28.1348 123.907 37.92 123.907V121.309ZM15.6364 114.428C10.1074 109.897 7.004 103.635 6.37896 95.5098L3.78854 95.709C4.46074 104.448 7.84353 111.401 13.9897 116.438L15.6364 114.428ZM5.30001 96.8903L14.6644 95.3093L14.2319 92.7475L4.8675 94.3285L5.30001 96.8903ZM13.1521 94.116C13.5793 100.439 16.076 105.633 20.6504 109.603L22.3534 107.641C18.3336 104.152 16.1278 99.6172 15.7442 93.9408L13.1521 94.116ZM20.6703 109.62C25.3334 113.506 31.3666 115.394 38.6497 115.394V112.796C31.8253 112.796 26.4267 111.035 22.3335 107.624L20.6703 109.62ZM37.3554 113.984L36.6257 122.497L39.2143 122.719L39.944 114.206L37.3554 113.984ZM59.6478 64.7575C59.2276 58.2028 57.1541 52.9624 53.3002 49.1961L51.4843 51.0542C54.7652 54.2605 56.6645 58.8304 57.0551 64.9237L59.6478 64.7575ZM53.3108 49.2066C49.4326 45.3284 43.9938 43.475 37.1903 43.475V46.0731C43.5213 46.0731 48.2171 47.7871 51.4737 51.0437L53.3108 49.2066ZM38.486 44.8666L39.0941 36.3535L36.5026 36.1684L35.8946 44.6815L38.486 44.8666ZM37.7984 37.56C43.6336 37.56 48.6537 38.6633 52.8975 40.8238L54.0762 38.5085C49.4015 36.1287 43.9625 34.9619 37.7984 34.9619V37.56ZM52.9226 40.8363C57.2436 42.9196 60.531 45.9092 62.8261 49.8108L65.0654 48.4936C62.4959 44.1253 58.8106 40.7909 54.051 38.496L52.9226 40.8363ZM62.8417 49.8367C65.2107 53.6576 66.4168 58.1566 66.4168 63.3812H69.0149C69.0149 57.7416 67.7076 52.7545 65.0498 48.4677L62.8417 49.8367ZM67.5158 62.0977L58.1514 63.5571L58.5515 66.1242L67.9159 64.6648L67.5158 62.0977ZM122.584 116.649L121.703 115.695L121.703 115.695L122.584 116.649ZM86.2214 116.649L87.1032 115.695L87.1032 115.695L86.2214 116.649ZM79.8974 99.6227L81.1963 99.637L81.1964 99.6298V99.6227H79.8974ZM79.8974 59.976V58.677H78.5983V59.976H79.8974ZM88.7753 59.976H90.0743V58.677H88.7753V59.976ZM92.9102 110.933L91.9917 111.852L91.9985 111.858L92.0055 111.865L92.9102 110.933ZM116.017 110.933L116.922 111.865L116.929 111.858L116.936 111.852L116.017 110.933ZM120.152 59.976V58.677H118.853V59.976H120.152ZM129.03 59.976H130.329V58.677H129.03V59.976ZM127.731 99.6227C127.731 106.739 125.668 112.029 121.703 115.695L123.466 117.603C128.095 113.323 130.329 107.262 130.329 99.6227H127.731ZM121.703 115.695C117.716 119.381 112.03 121.309 104.464 121.309V123.907C112.464 123.907 118.859 121.862 123.466 117.603L121.703 115.695ZM104.464 121.309C96.8117 121.309 91.0877 119.379 87.1032 115.695L85.3395 117.603C89.9492 121.865 96.3868 123.907 104.464 123.907V121.309ZM87.1032 115.695C83.1428 112.034 81.1181 106.75 81.1963 99.637L78.5984 99.6084C78.5144 107.251 80.7058 113.319 85.3395 117.603L87.1032 115.695ZM81.1964 99.6227V59.976H78.5983V99.6227H81.1964ZM79.8974 61.275H88.7753V58.677H79.8974V61.275ZM87.4763 59.976V98.5282H90.0743V59.976H87.4763ZM87.4763 98.5282C87.4763 104.242 88.9055 108.765 91.9917 111.852L93.8288 110.014C91.4017 107.587 90.0743 103.841 90.0743 98.5282H87.4763ZM92.0055 111.865C95.0685 114.838 99.2813 116.245 104.464 116.245V113.647C99.7548 113.647 96.2652 112.379 93.815 110.001L92.0055 111.865ZM104.464 116.245C109.646 116.245 113.859 114.838 116.922 111.865L115.112 110.001C112.662 112.379 109.173 113.647 104.464 113.647V116.245ZM116.936 111.852C120.022 108.765 121.451 104.242 121.451 98.5282H118.853C118.853 103.841 117.526 107.587 115.099 110.014L116.936 111.852ZM121.451 98.5282V59.976H118.853V98.5282H121.451ZM120.152 61.275H129.03V58.677H120.152V61.275ZM127.731 59.976V99.6227H130.329V59.976H127.731ZM193.63 59.976L194.843 60.4399L195.517 58.677H193.63V59.976ZM169.915 122L170.083 123.288L170.851 123.188L171.128 122.464L169.915 122ZM161.523 123.095L160.309 123.556L160.673 124.515L161.691 124.383L161.523 123.095ZM137.565 59.976V58.677H135.682L136.351 60.437L137.565 59.976ZM146.808 59.976L148.026 59.5247L147.712 58.677H146.808V59.976ZM161.767 100.352L160.548 100.804L160.551 100.81L160.553 100.817L161.767 100.352ZM167.361 118.716V120.015H168.908L168.64 118.492L167.361 118.716ZM163.956 118.716L162.675 118.497L162.415 120.015H163.956V118.716ZM166.023 110.325L167.259 110.725L167.262 110.714L166.023 110.325ZM169.672 99.7443L168.453 99.2935L168.451 99.2985L169.672 99.7443ZM184.387 59.976V58.677H183.483L183.169 59.5252L184.387 59.976ZM135.862 146.445H134.563V147.744H135.862V146.445ZM135.862 138.783V137.484H134.563V138.783H135.862ZM160.064 138.783H161.363V137.484H160.064V138.783ZM160.064 146.445V147.744H161.363V146.445H160.064ZM161.888 120.297L162.158 119.027L161.09 118.8L160.683 119.813L161.888 120.297ZM169.915 122L171.12 122.486L171.698 121.05L170.184 120.729L169.915 122ZM160.064 146.445L159.653 147.677L160.812 148.063L161.269 146.93L160.064 146.445ZM152.402 143.891L151.197 143.406L150.682 144.687L151.991 145.123L152.402 143.891ZM192.417 59.5121L168.701 121.536L171.128 122.464L194.843 60.4399L192.417 59.5121ZM169.747 120.712L161.355 121.806L161.691 124.383L170.083 123.288L169.747 120.712ZM162.738 122.634L138.78 59.515L136.351 60.437L160.309 123.556L162.738 122.634ZM137.565 61.275H146.808V58.677H137.565V61.275ZM145.59 60.4273L160.548 100.804L162.985 99.9011L148.026 59.5247L145.59 60.4273ZM160.553 100.817C163.461 108.408 165.292 114.44 166.081 118.941L168.64 118.492C167.808 113.75 165.91 107.539 162.98 99.8878L160.553 100.817ZM167.361 117.417H163.956V120.015H167.361V117.417ZM165.236 118.936C165.712 116.16 166.386 113.423 167.259 110.725L164.787 109.925C163.876 112.74 163.172 115.598 162.675 118.497L165.236 118.936ZM167.262 110.714C168.146 107.903 169.355 104.396 170.892 100.19L168.451 99.2985C166.907 103.525 165.684 107.072 164.784 109.935L167.262 110.714ZM170.89 100.195L185.605 60.4268L183.169 59.5252L168.453 99.2935L170.89 100.195ZM184.387 61.275H193.63V58.677H184.387V61.275ZM137.161 146.445V138.783H134.563V146.445H137.161ZM135.862 140.082H160.064V137.484H135.862V140.082ZM158.765 138.783V146.445H161.363V138.783H158.765ZM160.064 145.146H135.862V147.744H160.064V145.146ZM161.619 121.568L169.645 123.271L170.184 120.729L162.158 119.027L161.619 121.568ZM168.71 121.514L158.859 145.959L161.269 146.93L171.12 122.486L168.71 121.514ZM160.475 145.212L152.813 142.658L151.991 145.123L159.653 147.677L160.475 145.212ZM153.607 144.375L163.093 120.782L160.683 119.813L151.197 143.406L153.607 144.375ZM236.001 69.9485L235.082 70.867L235.089 70.8741L235.096 70.8811L236.001 69.9485ZM207.786 81.9884L207.605 83.2748L209.085 83.4833V81.9884H207.786ZM199.151 80.7723H197.852V81.9012L198.97 82.0586L199.151 80.7723ZM205.962 64.3542L205.106 63.3765L205.106 63.3765L205.962 64.3542ZM242.568 64.2325L243.467 63.2954L243.467 63.2954L242.568 64.2325ZM248.649 122V123.299H249.948V122H248.649ZM240.014 122H238.715V123.299H240.014V122ZM217.637 122.608V123.907H218.729L218.916 122.832L217.637 122.608ZM202.921 118.352L202.099 119.357L202.111 119.367L202.124 119.377L202.921 118.352ZM197.57 105.825L197.484 104.529L196.271 104.61V105.825H197.57ZM206.691 105.217H207.99V103.829L206.605 103.921L206.691 105.217ZM209.853 112.514L209.037 113.525L209.058 113.542L209.08 113.558L209.853 112.514ZM218.974 114.946L220.254 115.17L220.52 113.647H218.974V114.946ZM218.974 114.946V113.647H217.883L217.695 114.723L218.974 114.946ZM228.582 113L229.064 114.207L229.072 114.204L229.08 114.2L228.582 113ZM236.73 107.284L235.765 106.415L235.757 106.425L235.749 106.434L236.73 107.284ZM240.014 98.893L239.624 97.6537L238.715 97.9396V98.893H240.014ZM244.27 97.5552L245.569 97.5776L245.6 95.7756L243.881 96.316L244.27 97.5552ZM240.136 110.447L241.199 111.193L241.206 111.182L240.136 110.447ZM229.92 119.446L230.51 120.603L230.519 120.599L230.528 120.594L229.92 119.446ZM217.637 122.608L216.357 122.385L216.091 123.907H217.637V122.608ZM197.57 105.825H196.271V107.214L197.656 107.121L197.57 105.825ZM203.529 92.8122L202.705 91.8077L202.696 91.816L203.529 92.8122ZM219.947 86.0018L220.173 87.281L220.178 87.2802L219.947 86.0018ZM245.608 81.3804H246.907V79.8265L245.378 80.1019L245.608 81.3804ZM245.608 88.6773L245.831 89.9572L246.907 89.7702V88.6773H245.608ZM222.501 92.6906L222.279 91.4107L222.275 91.4114L222.501 92.6906ZM206.691 105.217L206.778 106.513L207.99 106.432V105.217H206.691ZM241.313 81.2587C241.313 76.0811 239.907 71.9273 236.905 69.0159L235.096 70.8811C237.445 73.1586 238.715 76.545 238.715 81.2587H241.313ZM236.919 69.0299C234.002 66.113 229.81 64.7577 224.569 64.7577V67.3558C229.381 67.3558 232.81 68.5951 235.082 70.867L236.919 69.0299ZM224.569 64.7577C219.137 64.7577 214.692 66.2491 211.393 69.3696L213.178 71.257C215.879 68.7021 219.623 67.3558 224.569 67.3558V64.7577ZM211.393 69.3696C208.083 72.5006 206.487 76.762 206.487 81.9884H209.085C209.085 77.3235 210.488 73.8015 213.178 71.257L211.393 69.3696ZM207.967 80.7021L199.332 79.4859L198.97 82.0586L207.605 83.2748L207.967 80.7021ZM200.45 80.7723C200.45 74.1097 202.604 69.0183 206.817 65.3318L205.106 63.3765C200.239 67.6355 197.852 73.4896 197.852 80.7723H200.45ZM206.817 65.3318C211.052 61.6264 216.995 59.694 224.812 59.694V57.096C216.576 57.096 209.952 59.1363 205.106 63.3765L206.817 65.3318ZM224.812 59.694C232.391 59.694 237.937 61.5872 241.668 65.1696L243.467 63.2954C239.091 59.0944 232.8 57.096 224.812 57.096V59.694ZM241.668 65.1696C245.389 68.7413 247.35 74.0685 247.35 81.3804H249.948C249.948 73.6119 247.855 67.5072 243.467 63.2954L241.668 65.1696ZM247.35 81.3804V122H249.948V81.3804H247.35ZM248.649 120.701H240.014V123.299H248.649V120.701ZM241.313 122V81.2587H238.715V122H241.313ZM217.637 121.309C211.668 121.309 207.073 119.935 203.719 117.326L202.124 119.377C206.066 122.443 211.282 123.907 217.637 123.907V121.309ZM203.744 117.346C200.533 114.719 198.869 110.945 198.869 105.825H196.271C196.271 111.569 198.174 116.146 202.099 119.357L203.744 117.346ZM197.656 107.121L206.778 106.513L206.605 103.921L197.484 104.529L197.656 107.121ZM205.392 105.217C205.392 108.698 206.571 111.533 209.037 113.525L210.669 111.503C208.92 110.09 207.99 108.06 207.99 105.217H205.392ZM209.08 113.558C211.571 115.403 214.92 116.245 218.974 116.245V113.647C215.246 113.647 212.514 112.868 210.626 111.47L209.08 113.558ZM217.695 114.723L216.357 122.385L218.916 122.832L220.254 115.17L217.695 114.723ZM218.974 116.245C222.318 116.245 225.684 115.559 229.064 114.207L228.1 111.794C224.994 113.037 221.955 113.647 218.974 113.647V116.245ZM229.08 114.2C232.568 112.754 235.457 110.737 237.712 108.135L235.749 106.434C233.788 108.696 231.245 110.49 228.084 111.8L229.08 114.2ZM237.696 108.154C240.091 105.492 241.313 102.388 241.313 98.893H238.715C238.715 101.722 237.747 104.213 235.765 106.415L237.696 108.154ZM240.403 100.132L244.66 98.7945L243.881 96.316L239.624 97.6537L240.403 100.132ZM242.972 97.5329C242.895 101.979 241.597 106.028 239.065 109.711L241.206 111.182C244.025 107.081 245.484 102.536 245.569 97.5776L242.972 97.5329ZM239.072 109.7C236.515 113.342 233.266 116.204 229.312 118.298L230.528 120.594C234.843 118.31 238.405 115.172 241.199 111.193L239.072 109.7ZM229.33 118.289C225.351 120.317 221.457 121.309 217.637 121.309V123.907C221.924 123.907 226.219 122.791 230.51 120.603L229.33 118.289ZM218.916 122.832L220.254 115.17L217.695 114.723L216.357 122.385L218.916 122.832ZM198.869 105.825C198.869 100.844 200.696 96.8766 204.363 93.8085L202.696 91.816C198.417 95.3962 196.271 100.104 196.271 105.825H198.869ZM204.353 93.8167C208.186 90.6735 213.43 88.4709 220.173 87.281L219.722 84.7225C212.681 85.9649 206.98 88.3026 202.706 91.8077L204.353 93.8167ZM220.178 87.2802L245.838 82.6588L245.378 80.1019L219.717 84.7233L220.178 87.2802ZM244.309 81.3804V88.6773H246.907V81.3804H244.309ZM245.386 87.3974L222.279 91.4107L222.724 93.9705L245.831 89.9572L245.386 87.3974ZM222.275 91.4114C216.906 92.3614 212.712 93.9245 209.837 96.2026C206.904 98.5263 205.392 101.561 205.392 105.217H207.99C207.99 102.387 209.113 100.091 211.45 98.239C213.845 96.3416 217.557 94.8846 222.728 93.9698L222.275 91.4114ZM206.605 103.921L197.484 104.529L197.656 107.121L206.778 106.513L206.605 103.921ZM301.874 122.122H300.575V123.421H301.874V122.122ZM297.374 70.0701L296.495 71.0266L296.502 71.0331L296.509 71.0396L297.374 70.0701ZM273.294 70.0701L274.159 71.0396L274.166 71.0331L274.173 71.0266L273.294 70.0701ZM268.794 122.122V123.421H270.093V122.122H268.794ZM260.159 122.122H258.86V123.421H260.159V122.122ZM260.159 81.2587H261.458V81.2443L261.458 81.2299L260.159 81.2587ZM266.605 64.3542L267.469 65.3241L267.47 65.3232L266.605 64.3542ZM303.819 64.3542L302.946 65.3154L302.955 65.3237L302.964 65.3318L303.819 64.3542ZM310.508 81.2587L309.209 81.2443L309.209 81.2515V81.2587H310.508ZM310.508 122.122V123.421H311.807V122.122H310.508ZM303.173 122.122V82.3533H300.575V122.122H303.173ZM303.173 82.3533C303.173 76.613 301.606 72.1042 298.238 69.1006L296.509 71.0396C299.141 73.3871 300.575 77.067 300.575 82.3533H303.173ZM298.253 69.1136C294.96 66.0881 290.606 64.6361 285.334 64.6361V67.2342C290.115 67.2342 293.788 68.5389 296.495 71.0266L298.253 69.1136ZM285.334 64.6361C280.061 64.6361 275.707 66.0881 272.415 69.1136L274.173 71.0266C276.88 68.5389 280.553 67.2342 285.334 67.2342V64.6361ZM272.429 69.1006C269.062 72.1042 267.495 76.613 267.495 82.3533H270.093C270.093 77.067 271.526 73.3871 274.159 71.0396L272.429 69.1006ZM267.495 82.3533V122.122H270.093V82.3533H267.495ZM268.794 120.823H260.159V123.421H268.794V120.823ZM261.458 122.122V81.2587H258.86V122.122H261.458ZM261.458 81.2299C261.302 74.2211 263.356 68.9881 267.469 65.3241L265.741 63.3842C260.935 67.6658 258.692 73.7025 258.861 81.2876L261.458 81.2299ZM267.47 65.3232C271.707 61.54 277.608 59.5724 285.334 59.5724V56.9743C277.169 56.9743 270.583 59.0606 265.74 63.3852L267.47 65.3232ZM285.334 59.5724C292.976 59.5724 298.791 61.5385 302.946 65.3154L304.693 63.3929C299.929 59.0621 293.42 56.9743 285.334 56.9743V59.5724ZM302.964 65.3318C307.159 69.0024 309.287 74.2398 309.209 81.2443L311.807 81.2732C311.892 73.6838 309.561 67.6515 304.675 63.3765L302.964 65.3318ZM309.209 81.2587V122.122H311.807V81.2587H309.209ZM310.508 120.823H301.874V123.421H310.508V120.823ZM358.661 69.9485L357.743 70.867L357.75 70.8741L357.757 70.8811L358.661 69.9485ZM330.447 81.9884L330.265 83.2748L331.746 83.4833V81.9884H330.447ZM321.812 80.7723H320.513V81.9012L321.631 82.0586L321.812 80.7723ZM328.622 64.3542L327.767 63.3765L327.767 63.3765L328.622 64.3542ZM365.229 64.2325L366.128 63.2954L366.128 63.2954L365.229 64.2325ZM371.309 122V123.299H372.609V122H371.309ZM362.675 122H361.376V123.299H362.675V122ZM340.297 122.608V123.907H341.389L341.577 122.832L340.297 122.608ZM325.582 118.352L324.759 119.357L324.772 119.367L324.784 119.377L325.582 118.352ZM320.231 105.825L320.144 104.529L318.932 104.61V105.825H320.231ZM329.352 105.217H330.651V103.829L329.266 103.921L329.352 105.217ZM332.514 112.514L331.698 113.525L331.719 113.542L331.741 113.558L332.514 112.514ZM341.635 114.946L342.915 115.17L343.181 113.647H341.635V114.946ZM341.635 114.946V113.647H340.543L340.356 114.723L341.635 114.946ZM351.243 113L351.725 114.207L351.733 114.204L351.74 114.2L351.243 113ZM359.391 107.284L358.426 106.415L358.417 106.425L358.409 106.434L359.391 107.284ZM362.675 98.893L362.285 97.6537L361.376 97.9396V98.893H362.675ZM366.931 97.5552L368.23 97.5776L368.261 95.7756L366.542 96.316L366.931 97.5552ZM362.796 110.447L363.86 111.193L363.867 111.182L362.796 110.447ZM352.581 119.446L353.171 120.603L353.18 120.599L353.188 120.594L352.581 119.446ZM340.297 122.608L339.018 122.385L338.752 123.907H340.297V122.608ZM320.231 105.825H318.932V107.214L320.317 107.121L320.231 105.825ZM326.19 92.8122L325.366 91.8077L325.356 91.816L326.19 92.8122ZM342.608 86.0018L342.834 87.281L342.838 87.2802L342.608 86.0018ZM368.269 81.3804H369.568V79.8265L368.039 80.1019L368.269 81.3804ZM368.269 88.6773L368.491 89.9572L369.568 89.7702V88.6773H368.269ZM345.162 92.6906L344.94 91.4107L344.936 91.4114L345.162 92.6906ZM329.352 105.217L329.438 106.513L330.651 106.432V105.217H329.352ZM363.974 81.2587C363.974 76.0811 362.568 71.9273 359.566 69.0159L357.757 70.8811C360.106 73.1586 361.376 76.545 361.376 81.2587H363.974ZM359.58 69.0299C356.663 66.113 352.47 64.7577 347.23 64.7577V67.3558C352.042 67.3558 355.471 68.5951 357.743 70.867L359.58 69.0299ZM347.23 64.7577C341.798 64.7577 337.353 66.2491 334.054 69.3696L335.839 71.257C338.54 68.7021 342.284 67.3558 347.23 67.3558V64.7577ZM334.054 69.3696C330.744 72.5006 329.148 76.762 329.148 81.9884H331.746C331.746 77.3235 333.149 73.8015 335.839 71.257L334.054 69.3696ZM330.628 80.7021L321.993 79.4859L321.631 82.0586L330.265 83.2748L330.628 80.7021ZM323.111 80.7723C323.111 74.1097 325.265 69.0183 329.478 65.3318L327.767 63.3765C322.9 67.6355 320.513 73.4896 320.513 80.7723H323.111ZM329.478 65.3318C333.712 61.6264 339.655 59.694 347.473 59.694V57.096C339.237 57.096 332.613 59.1363 327.767 63.3765L329.478 65.3318ZM347.473 59.694C355.052 59.694 360.597 61.5872 364.329 65.1696L366.128 63.2954C361.752 59.0944 355.461 57.096 347.473 57.096V59.694ZM364.329 65.1696C368.05 68.7413 370.01 74.0685 370.01 81.3804H372.609C372.609 73.6119 370.516 67.5072 366.128 63.2954L364.329 65.1696ZM370.01 81.3804V122H372.609V81.3804H370.01ZM371.309 120.701H362.675V123.299H371.309V120.701ZM363.974 122V81.2587H361.376V122H363.974ZM340.297 121.309C334.328 121.309 329.734 119.935 326.38 117.326L324.784 119.377C328.727 122.443 333.943 123.907 340.297 123.907V121.309ZM326.405 117.346C323.194 114.719 321.53 110.945 321.53 105.825H318.932C318.932 111.569 320.835 116.146 324.759 119.357L326.405 117.346ZM320.317 107.121L329.438 106.513L329.266 103.921L320.144 104.529L320.317 107.121ZM328.053 105.217C328.053 108.698 329.232 111.533 331.698 113.525L333.33 111.503C331.58 110.09 330.651 108.06 330.651 105.217H328.053ZM331.741 113.558C334.231 115.403 337.581 116.245 341.635 116.245V113.647C337.907 113.647 335.175 112.868 333.287 111.47L331.741 113.558ZM340.356 114.723L339.018 122.385L341.577 122.832L342.915 115.17L340.356 114.723ZM341.635 116.245C344.979 116.245 348.345 115.559 351.725 114.207L350.76 111.794C347.655 113.037 344.616 113.647 341.635 113.647V116.245ZM351.74 114.2C355.229 112.754 358.118 110.737 360.373 108.135L358.409 106.434C356.448 108.696 353.905 110.49 350.745 111.8L351.74 114.2ZM360.357 108.154C362.752 105.492 363.974 102.388 363.974 98.893H361.376C361.376 101.722 360.408 104.213 358.426 106.415L360.357 108.154ZM363.064 100.132L367.321 98.7945L366.542 96.316L362.285 97.6537L363.064 100.132ZM365.632 97.5329C365.556 101.979 364.258 106.028 361.726 109.711L363.867 111.182C366.686 107.081 368.145 102.536 368.23 97.5776L365.632 97.5329ZM361.733 109.7C359.176 113.342 355.927 116.204 351.973 118.298L353.188 120.594C357.504 118.31 361.065 115.172 363.86 111.193L361.733 109.7ZM351.991 118.289C348.012 120.317 344.118 121.309 340.297 121.309V123.907C344.584 123.907 348.88 122.791 353.171 120.603L351.991 118.289ZM341.577 122.832L342.915 115.17L340.356 114.723L339.018 122.385L341.577 122.832ZM321.53 105.825C321.53 100.844 323.357 96.8766 327.024 93.8085L325.356 91.816C321.078 95.3962 318.932 100.104 318.932 105.825H321.53ZM327.014 93.8167C330.847 90.6735 336.091 88.4709 342.834 87.281L342.382 84.7225C335.342 85.9649 329.641 88.3026 325.366 91.8077L327.014 93.8167ZM342.838 87.2802L368.499 82.6588L368.039 80.1019L342.378 84.7233L342.838 87.2802ZM366.97 81.3804V88.6773H369.568V81.3804H366.97ZM368.047 87.3974L344.94 91.4107L345.384 93.9705L368.491 89.9572L368.047 87.3974ZM344.936 91.4114C339.567 92.3614 335.373 93.9245 332.498 96.2026C329.565 98.5263 328.053 101.561 328.053 105.217H330.651C330.651 102.387 331.774 100.091 334.111 98.239C336.506 96.3416 340.218 94.8846 345.388 93.9698L344.936 91.4114ZM329.266 103.921L320.144 104.529L320.317 107.121L329.438 106.513L329.266 103.921ZM395.058 112.149H396.357V110.85H395.058V112.149ZM395.058 122V123.299H396.357V122H395.058ZM385.329 122H384.029V123.299H385.329V122ZM385.329 112.149V110.85H384.029V112.149H385.329ZM393.759 112.149V122H396.357V112.149H393.759ZM395.058 120.701H385.329V123.299H395.058V120.701ZM386.628 122V112.149H384.029V122H386.628ZM385.329 113.448H395.058V110.85H385.329V113.448Z" fill="#181818" mask="url(#path-1-outside-1_476_83)"></path><rect x="259.807" y="35.0742" width="114.315" height="10.3923" fill="#181818"></rect></svg>